inDegrees=yes
name=ik_Xsens_quaternion
DataType=double
version=3
OpenSimVersion=4.4-2022-07-23-0e9fedc
endheader
time	pelvis_tilt	pelvis_list	pelvis_rotation	pelvis_tx	pelvis_ty	pelvis_tz	hip_flexion_r	hip_adduction_r	hip_rotation_r	knee_angle_r	knee_angle_r_beta	ankle_angle_r	subtalar_angle_r	mtp_angle_r	hip_flexion_l	hip_adduction_l	hip_rotation_l	knee_angle_l	knee_angle_l_beta	ankle_angle_l	subtalar_angle_l	mtp_angle_l	lumbar_extension	lumbar_bending	lumbar_rotation	arm_flex_r	arm_add_r	arm_rot_r	elbow_flex_r	pro_sup_r	wrist_flex_r	wrist_dev_r	arm_flex_l	arm_add_l	arm_rot_l	elbow_flex_l	pro_sup_l	wrist_flex_l	wrist_dev_l
25.1	0	0	0	0	0.93	0	4.594144125593695e-49	0	0	2.426570649309934e-20	5.241540515187353e-23	0	0	0	4.594144125593695e-49	0	0	2.426570649309934e-20	5.241540515187353e-23	0	0	0	0	0	0	85.72911713020923	-7.939962184566725	-27.73357803247759	0.004696492247622731	-0.0009987887779794031	0	0	285.7092673979186	-60.90081999776015	253.2477538680121	-0.0005769277542109929	-0.006853226744752922	0	0
25.11666666666667	0	0	0	0	0.93	0	4.594144125593695e-49	0	0	2.426570649309934e-20	5.241540515187353e-23	0	0	0	4.594144125593695e-49	0	0	2.426570649309934e-20	5.241540515187353e-23	0	0	0	0	0	0	85.7050594945769	-7.913175290321893	-27.73095611343719	0.004696492247622731	-0.0009987887779794031	0	0	285.7231793484485	-60.89373568107263	253.2573143975197	-0.0005769277542109929	-0.006853226744752922	0	0
25.13333333333333	0	0	0	0	0.93	0	4.594144125593695e-49	0	0	2.426570649309934e-20	5.241540515187353e-23	0	0	0	4.594144125593695e-49	0	0	2.426570649309934e-20	5.241540515187353e-23	0	0	0	0	0	0	85.67008323585908	-7.873079002484057	-27.71377871011775	0.004696492247622731	-0.0009987887779794031	0	0	285.7656658519346	-60.89965001440007	253.292893751614	-0.0005769277542109929	-0.006853226744752922	0	0
25.15	0	0	0	0	0.93	0	0	0	0	0	1.763241526233431e-38	0	0	0	0	0	0	0	1.763241526233431e-38	0	0	0	0	0	0	85.63669885641119	-7.835894537519723	-27.67334490189289	0.004696492247622731	-0.0009987887779794031	0	0	285.7737057398892	-60.92266005367483	253.3214938585996	-0.0005769277542109929	-0.006853226744752922	0	0
25.16666666666667	9.191239761015479e-27	4.563937951808472e-19	-3.992010564743377e-28	-9.140252241546922e-27	0.93	-1.879967549227237e-26	-3.24361766531518e-33	3.44370268063219e-24	0	4.14622275401304e-16	7.236495108927428e-18	-1.88597832603364e-20	2.445849633813727e-22	3.873771630635666e-18	6.539212491446422e-23	1.04959588239767e-31	3.336936043016169e-23	4.11594645725784e-16	7.18365071842801e-18	3.181432252639591e-24	9.541805790832545e-17	4.449630112202507e-18	9.191239761015479e-27	-7.722515019715781e-25	2.864464542625163e-24	85.59705449135411	-7.793854426669138	-27.64375227097977	0.004696492247622731	-0.0009987887779794031	-2.807020700596505e-20	-2.061980680597297e-20	285.8272266649369	-60.95967233524375	253.4040290935204	-0.0005769277542109929	-0.006853226744752922	1.369431985723753e-20	1.098475544155986e-19
25.18333333333333	0	0	0	0	0.93	0	0	0	0	0	0	0	0	0	0	0	0	0	0	0	0	0	0	0	0	85.575241446882	-7.757372203706119	-27.64414795743486	0.004696492247622731	-0.0009987887779794031	0	0	285.8854527040579	-61.00359754308655	253.4745727199827	-0.0005769277542109929	-0.006853226744752922	0	0
25.2	0	0	0	0	0.93	0	0	0	0	0	0	0	0	0	0	0	0	0	0	0	0	0	0	0	0	85.55460405975244	-7.720665467254108	-27.64955801670923	0.004696492247622731	-0.0009987887779794031	0	0	285.901864094533	-61.05179658859984	253.5186192914278	-0.0005769277542109929	-0.006853226744752922	0	0
25.21666666666667	0	0	0	0	0.93	0	0	0	0	0	0	0	0	0	0	0	0	0	0	0	0	0	0	0	0	85.52776154673519	-7.682016826603466	-27.62558994289688	0.004696492247622731	-0.0009987887779794031	0	0	285.9885166585166	-61.10470482813037	253.6570282540478	-0.0005769277542109929	-0.006853226744752922	0	0
25.23333333333333	0	0	0	0	0.93	0	0	0	0	0	0	0	0	0	0	0	0	0	0	0	0	0	0	0	0	85.48688903641498	-7.657167504856538	-27.56176412005734	0.004696492247622731	-0.0009987887779794031	0	0	285.9965867358731	-61.14221878468673	253.6753014639704	-0.0005769277542109929	-0.006853226744752922	0	0
25.25	0	0	0	0	0.93	0	0	0	0	0	0	0	0	0	0	0	0	0	0	0	0	0	0	0	0	85.44128965831074	-7.629250445355127	-27.46694037513861	0.004696492247622731	-0.0009987887779794031	0	0	286.0211651222523	-61.18178297821387	253.6966006840194	-0.0005769277542109929	-0.006853226744752922	0	0
25.26666666666667	0	0	0	0	0.93	0	0	0	0	0	0	0	0	0	0	0	0	0	0	0	0	0	0	0	0	85.39932140286372	-7.604010010943707	-27.39126365545673	0.004696492247622731	-0.0009987887779794031	0	0	286.0405818814843	-61.22317023920817	253.7317097923373	-0.0005769277542109929	-0.006853226744752922	0	0
25.28333333333333	0	0	0	0	0.93	0	0	0	0	0	-5.877471754111438e-39	0	0	0	0	0	0	0	-5.877471754111438e-39	0	0	0	0	0	0	85.37104746149913	-7.583959420122444	-27.37011763149313	0.004696492247622731	-0.0009987887779794031	0	0	286.0555502139966	-61.26678445035488	253.7846821679125	-0.0005769277542109929	-0.006853226744752922	0	0
25.3	0	0	0	0	0.93	0	0	0	0	0	-5.877471754111438e-39	0	0	0	0	0	0	0	-5.877471754111438e-39	0	0	0	0	0	0	85.35869670290246	-7.568650287614849	-27.38573312801418	0.004696492247622731	-0.0009987887779794031	0	0	286.0923602730833	-61.32150594650859	253.8728986062369	-0.0005769277542109929	-0.006853226744752922	0	0
25.31666666666667	0	0	0	0	0.93	0	0	0	0	0	0	0	0	0	0	0	0	0	0	0	0	0	0	0	0	85.33971363885267	-7.557455653493834	-27.36366893915736	0.004696492247622731	-0.0009987887779794031	0	0	286.1235840040247	-61.36660151786638	253.932657560127	-0.0005769277542109929	-0.006853226744752922	0	0
25.33333333333333	0	0	0	0	0.93	0	0	0	0	0	0	0	0	0	0	0	0	0	0	0	0	0	0	0	0	85.29491662683947	-7.550127460086106	-27.28160674648472	0.004696492247622731	-0.0009987887779794031	0	0	286.1710796492227	-61.3967710045203	253.9960938418888	-0.0005769277542109929	-0.006853226744752922	0	0
25.35	0	0	0	0	0.93	0	0	0	0	0	0	0	0	0	0	0	0	0	0	0	0	0	0	0	0	85.24898573683394	-7.549482608253164	-27.19685276323908	0.004696492247622731	-0.0009987887779794031	0	0	286.1846192086065	-61.40533902277758	254.0165123587927	-0.0005769277542109929	-0.006853226744752922	0	0
25.36666666666667	0	0	0	0	0.93	0	0	0	0	0	5.877471754111438e-39	0	0	0	0	0	0	0	5.877471754111438e-39	0	0	0	0	0	0	85.19767684751923	-7.551913859182942	-27.14416089973481	0.004696492247622731	-0.0009987887779794031	0	0	286.1904042734292	-61.40701542371163	254.03602706658	-0.0005769277542109929	-0.006853226744752922	0	0
25.38333333333333	0	0	0	0	0.93	0	4.594144125593695e-49	0	0	2.426570649309934e-20	5.877471754111438e-39	0	0	0	4.594144125593695e-49	0	0	2.426570649309934e-20	5.877471754111438e-39	0	0	0	0	0	0	85.16967556413363	-7.550527773441887	-27.14642721855901	0.004696492247622731	-0.0009987887779794031	0	0	286.1957894071333	-61.40969680685818	254.0485272065935	-0.0005769277542109929	-0.006853226744752922	0	0
25.4	0	0	0	0	0.93	0	4.594144125593695e-49	0	0	2.426570649309934e-20	5.877471754111438e-39	0	0	0	4.594144125593695e-49	0	0	2.426570649309934e-20	5.877471754111438e-39	0	0	0	0	0	0	85.15291834653607	-7.54157458730326	-27.17844962331308	0.004696492247622731	-0.0009987887779794031	0	0	286.204638756639	-61.41382142741219	254.0424383657819	-0.0005769277542109929	-0.006853226744752922	0	0
25.41666666666667	0	0	0	0	0.93	0	4.594144125593695e-49	0	0	2.426570649309934e-20	5.877471754111438e-39	0	0	0	4.594144125593695e-49	0	0	2.426570649309934e-20	5.877471754111438e-39	0	0	0	0	0	0	85.13574166393234	-7.524947185273542	-27.23635150794868	0.004696492247622731	-0.0009987887779794031	0	0	286.2219682567712	-61.41654882544287	254.0120214018397	-0.0005769277542109929	-0.006853226744752922	0	0
25.43333333333333	0	0	0	0	0.93	0	0	0	0	0	5.877471754111438e-39	0	0	0	0	0	0	0	5.877471754111438e-39	0	0	0	0	0	0	85.12434868645514	-7.51074067569834	-27.32499262227249	0.004696492247622731	-0.0009987887779794031	0	0	286.235836391421	-61.41941157252997	253.9682090340252	-0.0005769277542109929	-0.006853226744752922	0	0
25.45	0	0	0	0	0.93	0	0	0	0	0	0	0	0	0	0	0	0	0	0	0	0	0	0	0	0	85.13811470324328	-7.495131268504487	-27.44488972723866	0.004696492247622731	-0.0009987887779794031	0	0	286.2457810779152	-61.42238423616609	253.9275768832554	-0.0005769277542109929	-0.006853226744752922	0	0
25.46666666666667	-6.422118264151837e-26	-8.357095190602339e-18	-1.354657928779192e-25	1.07270878544859e-18	0.93	-3.360778606370692e-19	9.698524580676619e-35	1.388494863546318e-25	-1.712747616506322e-25	0	-3.681615154226594e-19	8.012564208388718e-19	-1.492781042173741e-19	-1.107417689895565e-16	3.476937947727049e-14	-2.076103633104599e-14	-1.221202600009083e-14	0	-3.680957775984287e-19	-4.134205820929539e-19	-7.148240732402826e-18	-4.007857457200027e-18	-8.448698182627973e-16	5.293064261766914e-15	9.647715422562974e-15	85.16583751739351	-7.48382905636512	-27.57945637966342	0.0046964922476227	-0.000998788777979437	-6.124693068801494e-18	8.69587652153285e-21	286.2569112284137	-61.42488650775027	253.9161082314604	-0.0005769277542110066	-0.00685322674475292	4.419079735463549e-17	2.766898330698073e-17
25.48333333333333	0	0	0	0	0.93	0	0	0	0	0	0	0	0	0	0	0	0	0	0	0	0	0	0	0	0	85.19036838995892	-7.473857223463318	-27.74707014867263	0.0046964922476227	-0.000998788777979437	0	0	286.2867186713484	-61.42607848649929	253.9361206103418	-0.0005769277542110066	-0.00685322674475292	0	0
25.5	0	0	0	0	0.93	0	0	0	0	0	0	0	0	0	0	0	0	0	0	0	0	0	0	0	0	85.21741610972744	-7.460293648953706	-27.92531206506632	0.0046964922476227	-0.000998788777979437	0	0	286.3386843846491	-61.41677945039979	253.9958126352259	-0.0005769277542110066	-0.00685322674475292	0	0
25.51666666666667	7.401821888645709e-27	2.641931814395304e-25	4.348367106522103e-27	-1.432927637097291e-21	0.93	7.139571410180802e-18	1.475115846578866e-28	-7.321209763732335e-18	0	0	-1.173743595322292e-17	8.318342553530183e-20	-3.788789953832353e-19	-1.65734096612033e-24	-4.336747295056853e-16	2.432675046498062e-26	-3.732587985968673e-15	0	-1.167101011890979e-17	-7.477237370609682e-18	-2.6940899742755e-24	-1.865423871198349e-24	2.06582742640845e-26	-1.303016260893805e-16	-2.031747082666074e-24	85.24871961756395	-7.42953815314321	-28.07582745855184	0.004696492247622702	-0.0009987887779794372	-6.740635665659819e-22	1.321574119844067e-18	286.4001539358193	-61.41376028431716	254.0696124088094	-0.0005769277542110069	-0.00685322674475292	5.894831359542418e-19	1.600846100218185e-18
25.53333333333333	0	0	0	0	0.93	0	0	0	0	2.104714535737113e-38	-3.61990973178921e-42	0	0	0	0	0	0	1.052357267868557e-38	-3.61990973178921e-42	0	0	0	0	0	0	85.29183428841183	-7.393648537682761	-28.16089147663324	0.004696492247622702	-0.0009987887779794372	0	0	286.4718247524988	-61.41559167021003	254.169006155596	-0.0005769277542110069	-0.00685322674475292	0	0
